<svg width="135" height="41" viewBox="0 0 135 41" fill="none" xmlns="http://www.w3.org/2000/svg">
<path d="M6.71875 17.25V40H2.03125V17.25H6.71875ZM20.3438 17.25L11.3281 28.4844L6.125 34.0781L5.28125 29.6406L8.79688 24.8281L14.5938 17.25H20.3438ZM15.0156 40L8.3125 29.4844L11.7812 26.5781L20.5625 40H15.0156ZM26.375 26.7031V40H21.875V23.0938H26.0938L26.375 26.7031ZM25.7188 30.9531H24.5C24.5 29.7031 24.6615 28.5781 24.9844 27.5781C25.3073 26.5677 25.7604 25.7083 26.3438 25C26.9271 24.2812 27.6198 23.7344 28.4219 23.3594C29.2344 22.974 30.1406 22.7812 31.1406 22.7812C31.9323 22.7812 32.6562 22.8958 33.3125 23.125C33.9688 23.3542 34.5312 23.7188 35 24.2188C35.4792 24.7188 35.8438 25.3802 36.0938 26.2031C36.3542 27.026 36.4844 28.0312 36.4844 29.2188V40H31.9531V29.2031C31.9531 28.4531 31.849 27.8698 31.6406 27.4531C31.4323 27.0365 31.125 26.7448 30.7188 26.5781C30.3229 26.401 29.8333 26.3125 29.25 26.3125C28.6458 26.3125 28.1198 26.4323 27.6719 26.6719C27.2344 26.9115 26.8698 27.2448 26.5781 27.6719C26.2969 28.0885 26.0833 28.5781 25.9375 29.1406C25.7917 29.7031 25.7188 30.3073 25.7188 30.9531ZM39.1875 31.7188V31.3906C39.1875 30.151 39.3646 29.0104 39.7188 27.9688C40.0729 26.9167 40.5885 26.0052 41.2656 25.2344C41.9427 24.4635 42.776 23.8646 43.7656 23.4375C44.7552 23 45.8906 22.7812 47.1719 22.7812C48.4531 22.7812 49.5938 23 50.5938 23.4375C51.5938 23.8646 52.4323 24.4635 53.1094 25.2344C53.7969 26.0052 54.3177 26.9167 54.6719 27.9688C55.026 29.0104 55.2031 30.151 55.2031 31.3906V31.7188C55.2031 32.9479 55.026 34.0885 54.6719 35.1406C54.3177 36.1823 53.7969 37.0938 53.1094 37.875C52.4323 38.6458 51.599 39.2448 50.6094 39.6719C49.6198 40.099 48.4844 40.3125 47.2031 40.3125C45.9219 40.3125 44.7812 40.099 43.7812 39.6719C42.7917 39.2448 41.9531 38.6458 41.2656 37.875C40.5885 37.0938 40.0729 36.1823 39.7188 35.1406C39.3646 34.0885 39.1875 32.9479 39.1875 31.7188ZM43.6875 31.3906V31.7188C43.6875 32.4271 43.75 33.0885 43.875 33.7031C44 34.3177 44.1979 34.8594 44.4688 35.3281C44.75 35.7865 45.1146 36.1458 45.5625 36.4062C46.0104 36.6667 46.5573 36.7969 47.2031 36.7969C47.8281 36.7969 48.3646 36.6667 48.8125 36.4062C49.2604 36.1458 49.6198 35.7865 49.8906 35.3281C50.1615 34.8594 50.3594 34.3177 50.4844 33.7031C50.6198 33.0885 50.6875 32.4271 50.6875 31.7188V31.3906C50.6875 30.7031 50.6198 30.0573 50.4844 29.4531C50.3594 28.8385 50.1562 28.2969 49.875 27.8281C49.6042 27.349 49.2448 26.974 48.7969 26.7031C48.349 26.4323 47.8073 26.2969 47.1719 26.2969C46.5365 26.2969 45.9948 26.4323 45.5469 26.7031C45.1094 26.974 44.75 27.349 44.4688 27.8281C44.1979 28.2969 44 28.8385 43.875 29.4531C43.75 30.0573 43.6875 30.7031 43.6875 31.3906ZM62.7969 35.625L66.3125 23.0938H69.1719L68.25 28.0156L64.7344 40H62.3438L62.7969 35.625ZM61.0156 23.0938L63.5312 35.6094L63.7656 40H60.9531L56.6719 23.0938H61.0156ZM72.3906 35.4062L74.8438 23.0938H79.2031L74.9219 40H72.125L72.3906 35.4062ZM69.5625 23.0938L73.0625 35.5312L73.5469 40H71.1406L67.625 28.0312L66.7344 23.0938H69.5625ZM85.8594 16V40H81.3594V16H85.8594ZM85.2188 30.9531H83.9844C83.9948 29.776 84.151 28.6927 84.4531 27.7031C84.7552 26.7031 85.1875 25.8385 85.75 25.1094C86.3125 24.3698 86.9844 23.7969 87.7656 23.3906C88.5573 22.9844 89.4323 22.7812 90.3906 22.7812C91.224 22.7812 91.9792 22.901 92.6562 23.1406C93.3438 23.3698 93.9323 23.7448 94.4219 24.2656C94.9219 24.776 95.3073 25.4479 95.5781 26.2812C95.849 27.1146 95.9844 28.125 95.9844 29.3125V40H91.4531V29.2812C91.4531 28.5312 91.3438 27.9427 91.125 27.5156C90.9167 27.0781 90.6094 26.7708 90.2031 26.5938C89.8073 26.4062 89.3177 26.3125 88.7344 26.3125C88.0885 26.3125 87.5365 26.4323 87.0781 26.6719C86.6302 26.9115 86.2708 27.2448 86 27.6719C85.7292 28.0885 85.5312 28.5781 85.4062 29.1406C85.2812 29.7031 85.2188 30.3073 85.2188 30.9531ZM109.406 35.9531V23.0938H113.906V40H109.672L109.406 35.9531ZM109.906 32.4844L111.234 32.4531C111.234 33.5781 111.104 34.625 110.844 35.5938C110.583 36.5521 110.193 37.3854 109.672 38.0938C109.151 38.7917 108.495 39.3385 107.703 39.7344C106.911 40.1198 105.979 40.3125 104.906 40.3125C104.083 40.3125 103.323 40.1979 102.625 39.9688C101.938 39.7292 101.344 39.3594 100.844 38.8594C100.354 38.349 99.9688 37.6979 99.6875 36.9062C99.4167 36.1042 99.2812 35.1406 99.2812 34.0156V23.0938H103.781V34.0469C103.781 34.5469 103.839 34.9688 103.953 35.3125C104.078 35.6562 104.25 35.9375 104.469 36.1562C104.688 36.375 104.943 36.5312 105.234 36.625C105.536 36.7188 105.87 36.7656 106.234 36.7656C107.161 36.7656 107.891 36.5781 108.422 36.2031C108.964 35.8281 109.344 35.3177 109.562 34.6719C109.792 34.0156 109.906 33.2865 109.906 32.4844ZM117.344 16H121.844V36.125L121.391 40H117.344V16ZM132.547 31.375V31.7031C132.547 32.9635 132.411 34.1198 132.141 35.1719C131.88 36.224 131.474 37.1354 130.922 37.9062C130.37 38.6667 129.682 39.2604 128.859 39.6875C128.047 40.1042 127.089 40.3125 125.984 40.3125C124.953 40.3125 124.057 40.1042 123.297 39.6875C122.547 39.2708 121.917 38.6823 121.406 37.9219C120.896 37.1615 120.484 36.2708 120.172 35.25C119.859 34.2292 119.625 33.1146 119.469 31.9062V31.1875C119.625 29.9792 119.859 28.8646 120.172 27.8438C120.484 26.8229 120.896 25.9323 121.406 25.1719C121.917 24.4115 122.547 23.8229 123.297 23.4062C124.047 22.9896 124.932 22.7812 125.953 22.7812C127.068 22.7812 128.036 22.9948 128.859 23.4219C129.693 23.8385 130.38 24.4323 130.922 25.2031C131.474 25.9635 131.88 26.8698 132.141 27.9219C132.411 28.9635 132.547 30.1146 132.547 31.375ZM128.047 31.7031V31.375C128.047 30.6875 127.995 30.0417 127.891 29.4375C127.797 28.8229 127.63 28.2865 127.391 27.8281C127.151 27.3594 126.823 26.9896 126.406 26.7188C126 26.4479 125.474 26.3125 124.828 26.3125C124.214 26.3125 123.693 26.4167 123.266 26.625C122.839 26.8333 122.484 27.125 122.203 27.5C121.932 27.875 121.729 28.3229 121.594 28.8438C121.458 29.3542 121.375 29.9167 121.344 30.5312V32.5781C121.375 33.401 121.51 34.1302 121.75 34.7656C122 35.3906 122.375 35.8854 122.875 36.25C123.385 36.6042 124.047 36.7812 124.859 36.7812C125.495 36.7812 126.021 36.6562 126.438 36.4062C126.854 36.1562 127.177 35.8021 127.406 35.3438C127.646 34.8854 127.812 34.349 127.906 33.7344C128 33.1094 128.047 32.4323 128.047 31.7031Z" fill="white"/>
<path d="M83.0256 13.1127C83.0256 13.1127 83.5077 14.4091 83.2296 14.8659C82.9498 15.3227 81.8321 15.2342 81.4891 15.4509C81.2435 15.6061 81.2472 16.0359 81.4006 16.2128C81.5523 16.3915 83.764 16.2381 84.1974 15.4003C84.6307 14.5626 84.0421 12.9593 84.0421 12.9593L83.0256 13.1127Z" fill="#F97D23"/>
<path d="M86.5572 12.9593L85.6165 13.1633C85.6165 13.1633 86.0227 14.8659 85.6923 15.4256C85.3619 15.9853 84.1775 16.5829 83.9644 17.0524C83.773 17.4712 84.2443 17.8143 84.9809 17.3575C85.7176 16.9007 86.5517 16.2182 86.7088 15.8824C87.0916 15.0699 86.5572 12.9593 86.5572 12.9593Z" fill="#F97D23"/>
<path d="M80.1277 0.123847C78.1272 0.573421 76.569 2.25977 77.154 4.82541C77.5007 6.34746 77.7137 6.8837 77.8401 7.5698C78.1073 9.0124 78.0351 9.64614 78.6454 10.9678C79.2936 12.3743 81.6786 14.1798 84.6523 13.7465C87.626 13.3131 88.8213 12.9069 88.8213 12.9069L89.8883 11.9662L90.9048 11.7117L91.0565 10.975C91.0565 10.975 91.8166 10.9407 91.9719 10.6951C92.2174 10.3052 92.073 9.98377 91.6415 9.8303C91.21 9.67864 90.9554 9.55045 90.9554 9.55045C90.9554 9.55045 95.1496 6.77898 95.6569 6.47565C96.1643 6.17233 96.9533 5.64873 96.9912 5.45915C97.0869 4.97708 95.7833 3.90821 94.0807 3.40086C92.3781 2.8917 90.9157 2.75268 90.6755 2.94406C90.356 3.19503 88.9476 5.84192 88.007 5.71553C86.7864 5.54942 85.9487 4.40653 85.7194 3.75835C85.4594 3.02351 83.8976 -0.72294 80.1277 0.123847Z" fill="white"/>
<path d="M77.5603 4.08876C77.2551 4.03821 76.4751 4.86874 76.3235 5.07096C76.1718 5.27318 75.9317 5.56387 76.0184 5.78233C76.1538 6.12177 76.8489 6.13983 77.2551 6.17233C77.6794 6.20663 78.4919 6.27344 78.6273 6.02066C78.7627 5.76609 78.4757 5.12332 78.2373 4.73333C78.0171 4.37042 77.878 4.14293 77.5603 4.08876Z" fill="#F97D23"/>
<path d="M80.8842 4.82517C81.2822 4.77723 81.5627 4.38846 81.5107 3.95683C81.4587 3.5252 81.0939 3.21416 80.6959 3.2621C80.298 3.31004 80.0175 3.69881 80.0695 4.13044C80.1215 4.56208 80.4863 4.87312 80.8842 4.82517Z" fill="#2A2D2F"/>
<path d="M83.1772 9.47824C82.8251 9.60643 83.2874 10.8504 83.7622 11.4101C84.2623 11.9987 85.472 13.3204 87.3209 13.4937C88.5757 13.6129 89.1336 13.2572 89.4297 12.934C89.65 12.6939 89.8865 12.4158 90.049 12.2894C90.2855 12.1035 90.5239 12.2641 90.9301 11.968C91.2226 11.755 91.2858 11.4011 91.4393 11.2729C91.5909 11.1465 91.8491 11.1754 91.9809 11.0526C92.2174 10.8324 92.1849 10.1878 92.0152 10.1553C91.8455 10.1228 91.8293 10.6121 91.6595 10.6807C91.4898 10.7493 91.2641 10.706 90.9482 10.8847C90.6773 11.0364 90.7622 11.3415 90.5762 11.4769C90.3903 11.6124 90.0508 11.4264 89.594 11.681C89.3467 11.8182 89.1372 12.4772 88.424 12.6307C87.5393 12.8202 86.2123 12.1757 85.5767 11.7153C84.1016 10.6464 83.7785 9.25796 83.1772 9.47824Z" fill="#1670A6"/>
</svg>
