<svg width="405" height="339" viewBox="0 0 405 339" fill="none" xmlns="http://www.w3.org/2000/svg">
<path d="M135.248 252.431C135.248 252.431 144.529 277.387 139.176 286.181C133.788 294.974 112.273 293.271 105.669 297.442C100.942 300.431 101.012 308.704 103.966 312.11C106.886 315.551 149.464 312.597 157.806 296.469C166.148 280.341 154.817 249.477 154.817 249.477L135.248 252.431Z" fill="#F97D23"/>
<path d="M203.234 249.477L185.125 253.404C185.125 253.404 192.946 286.181 186.585 296.956C180.225 307.731 157.424 319.235 153.322 328.272C149.638 336.336 158.71 342.94 172.891 334.146C187.072 325.353 203.13 312.214 206.154 305.749C213.523 290.108 203.234 249.477 203.234 249.477Z" fill="#F97D23"/>
<path d="M79.4618 2.38417C40.9503 11.0388 10.9543 43.5025 22.2158 92.8932C28.8893 122.194 32.9907 132.517 35.4238 145.725C40.5679 173.496 39.1776 185.696 50.9257 211.139C63.4037 238.215 109.319 272.973 166.565 264.631C223.811 256.289 246.82 248.469 246.82 248.469L267.362 230.36L286.931 225.459L289.85 211.278C289.85 211.278 304.483 210.618 307.472 205.891C312.199 198.383 309.419 192.196 301.112 189.242C292.805 186.322 287.904 183.854 287.904 183.854C287.904 183.854 368.646 130.501 378.413 124.662C388.18 118.823 403.369 108.743 404.099 105.093C405.941 95.8129 380.846 75.2363 348.069 65.4694C315.293 55.6677 287.139 52.9914 282.516 56.6757C276.364 61.507 249.253 112.462 231.144 110.029C207.648 106.831 191.521 84.8295 187.106 72.3514C182.101 58.2051 152.036 -13.9172 79.4618 2.38417Z" fill="white"/>
<path d="M30.0364 78.7121C24.1624 77.7388 9.14702 93.7274 6.22737 97.6203C3.30772 101.513 -1.31505 107.109 0.35332 111.315C2.96015 117.849 16.3419 118.197 24.1623 118.822C32.3304 119.483 47.9714 120.769 50.5782 115.903C53.185 111.002 47.6586 98.6282 43.0705 91.1206C38.8301 84.1343 36.1538 79.7548 30.0364 78.7121Z" fill="#F97D23"/>
<path d="M94.0265 92.8885C101.688 91.9656 107.087 84.4814 106.086 76.1721C105.085 67.8629 98.0628 61.8751 90.4015 62.798C82.7402 63.7209 77.341 71.2051 78.342 79.5144C79.343 87.8236 86.3652 93.8114 94.0265 92.8885Z" fill="#2A2D2F"/>
<path d="M138.17 182.464C131.392 184.932 140.29 208.88 149.431 219.655C159.059 230.986 182.347 256.428 217.939 259.765C242.095 262.059 252.835 255.212 258.536 248.99C262.776 244.368 267.329 239.015 270.458 236.582C275.011 233.002 279.599 236.095 287.419 230.395C293.05 226.293 294.267 219.481 297.221 217.013C300.141 214.58 305.111 215.136 307.648 212.773C312.202 208.532 311.576 196.124 308.309 195.498C305.042 194.873 304.729 204.292 301.461 205.613C298.194 206.933 293.85 206.099 287.767 209.54C282.553 212.46 284.187 218.334 280.607 220.941C277.027 223.548 270.492 219.968 261.699 224.868C256.937 227.51 252.905 240.197 239.176 243.151C222.144 246.801 196.597 234.392 184.363 225.529C155.966 204.952 149.744 178.224 138.17 182.464Z" fill="#1670A6"/>
</svg>
