<svg width="42" height="50" viewBox="0 0 42 50" fill="none" xmlns="http://www.w3.org/2000/svg">
<path fill-rule="evenodd" clip-rule="evenodd" d="M38.4308 42.6043C39.8957 40.3698 40.4419 39.2278 41.5591 36.7202C33.3163 33.5919 32.0005 21.8484 40.1439 17.3545C37.6612 14.2262 34.1605 12.4138 30.8584 12.4138C28.4749 12.4138 26.8363 13.0346 25.3715 13.6056C24.1301 14.0773 23.0128 14.4994 21.6225 14.4994C20.1328 14.4994 18.8169 14.0277 17.4266 13.5311C15.9121 12.9849 14.323 12.4138 12.3368 12.4138C8.63747 12.4138 4.68989 14.6732 2.18229 18.5463C-1.34324 24.0084 -0.722552 34.2374 4.96299 42.9768C6.99887 46.105 9.72991 49.6058 13.2803 49.6554C14.7699 49.6802 15.7382 49.2333 16.8059 48.7616C18.0224 48.2154 19.3383 47.6195 21.6473 47.6195C23.9563 47.5947 25.2473 48.2154 26.4639 48.7616C27.5066 49.2333 28.4501 49.6802 29.9149 49.6554C33.5149 49.6058 36.395 45.7326 38.4308 42.6043Z" fill="white"/>
<path fill-rule="evenodd" clip-rule="evenodd" d="M30.3378 0C30.735 2.73105 29.6178 5.43729 28.153 7.3242C26.5888 9.36007 23.8578 10.949 21.226 10.8497C20.7543 8.21797 21.9709 5.51173 23.4605 3.6993C25.124 1.71309 27.9295 0.173794 30.3378 0Z" fill="white"/>
</svg>
