<svg width="50" height="50" viewBox="0 0 50 50" fill="none" xmlns="http://www.w3.org/2000/svg">
<path d="M36.4583 29.1667C35.8484 31.2884 34.6396 33.1892 32.9768 34.6414C31.314 36.0935 29.2678 37.0354 27.0833 37.3542C25.375 37.602 23.6343 37.5021 21.9656 37.0605C20.2969 36.6188 18.7346 35.8445 17.3726 34.7841C16.0106 33.7237 14.8769 32.399 14.0395 30.8895C13.2022 29.38 12.6785 27.7169 12.5 26C12.3616 24.2764 12.5824 22.5428 13.1483 20.9088C13.7143 19.2749 14.6131 17.7761 15.7879 16.5073C16.9627 15.2385 18.388 14.2273 19.9736 13.5375C21.5593 12.8477 23.2708 12.4945 25 12.5C26.6203 12.5023 28.2253 12.8134 29.7291 13.4167C29.9659 13.523 30.2339 13.5371 30.4805 13.4561C30.7271 13.3752 30.9347 13.2051 31.0625 12.9792L34.0625 7.45834C34.127 7.33118 34.1659 7.19252 34.1767 7.05031C34.1876 6.90811 34.1702 6.76516 34.1257 6.62966C34.0812 6.49417 34.0104 6.3688 33.9173 6.26075C33.8242 6.1527 33.7107 6.06409 33.5833 6.00001C30.3619 4.54149 26.8222 3.92697 23.2977 4.21432C19.7732 4.50166 16.3798 5.68143 13.4371 7.64249C10.4945 9.60355 8.09948 12.2814 6.47762 15.4237C4.85576 18.5661 4.06046 22.0696 4.16662 25.6042C4.37192 30.854 6.5299 35.8379 10.2178 39.5798C13.9057 43.3217 18.8579 45.5518 24.1041 45.8333C29.5998 46.0771 34.9688 44.1373 39.0396 40.4372C43.1105 36.7372 45.5526 31.5773 45.8333 26.0833C45.8333 25.6667 45.8333 23.2708 45.8333 21.9167C45.828 21.6421 45.7165 21.3802 45.5223 21.186C45.3281 20.9918 45.0662 20.8803 44.7916 20.875H26.0416C25.7654 20.875 25.5004 20.9848 25.305 21.1801C25.1097 21.3755 25 21.6404 25 21.9167V28.1667C25 28.4429 25.1097 28.7079 25.305 28.9032C25.5004 29.0986 25.7654 29.2083 26.0416 29.2083H36.4583" fill="white"/>
</svg>
