<svg xmlns="http://www.w3.org/2000/svg"  viewBox="0 0 120 120" width="120px" height="120px" baseProfile="basic"><ellipse cx="60" cy="63.575" opacity=".35" rx="48" ry="48.638"/><ellipse cx="60" cy="59.713" fill="#0075ff" rx="48" ry="48.5"/><path d="M54,52.612v50.21c1.967,0.248,3.966,0.391,6,0.391s4.033-0.143,6-0.391V52.399 c0-2.316,1.884-4.2,4.2-4.2H81V36.411H70.2C61.268,36.411,54,43.679,54,52.612z" opacity=".35"/><path fill="#a4e2f1" d="M54,48.424v59.398c1.967,0.248,3.966,0.391,6,0.391s4.033-0.143,6-0.391V48.424 c0-2.316,1.884-4.2,4.2-4.2H81v-12H70.2C61.268,32.224,54,39.491,54,48.424z"/><polygon points="77,76.199 42,76.199 42,64.199 80,64.199" opacity=".35"/><polygon fill="#a4e2f1" points="78,72.199 42,72.199 42,60.199 81,60.199"/></svg>